<svg xmlns="http://www.w3.org/2000/svg" width="860" height="230" viewBox="0 0 860 230" font-family="-apple-system,Segoe UI,Helvetica,Arial,sans-serif" font-size="14">
  <defs><marker id="a" viewBox="0 0 10 10" refX="9" refY="5" markerWidth="8" markerHeight="8" orient="auto"><path d="M0,0 L10,5 L0,10 z" fill="#8b949e"/></marker></defs>
  <rect width="860" height="230" fill="#ffffff"/>
  <g stroke="#d0d7de" fill="#f6f8fa">
    <rect x="16" y="24" width="180" height="182" rx="10"/>
    <rect x="260" y="70" width="150" height="90" rx="10"/>
    <rect x="474" y="24" width="180" height="182" rx="10"/>
    <rect x="718" y="70" width="126" height="90" rx="10"/>
  </g>
  <g fill="#1f2328" font-weight="600"><text x="106" y="48" text-anchor="middle">Accounts</text><text x="335" y="94" text-anchor="middle">Engine</text><text x="564" y="48" text-anchor="middle">Daemon</text><text x="781" y="94" text-anchor="middle">Agents</text></g>
  <g fill="#57606a">
    <text x="106" y="76" text-anchor="middle">~/.claude</text><text x="106" y="98" text-anchor="middle">~/.claude2</text><text x="106" y="120" text-anchor="middle">~/.codex</text><text x="106" y="142" text-anchor="middle">Antigravity (agy)</text><text x="106" y="164" text-anchor="middle">vLLM, llama.cpp</text><text x="106" y="192" text-anchor="middle" font-size="12">tokens read at call time</text>
    <text x="335" y="118" text-anchor="middle">tally-engine (Swift)</text><text x="335" y="140" text-anchor="middle" font-size="12">CodexBarCore, pinned</text>
    <text x="564" y="76" text-anchor="middle">SQLite history</text><text x="564" y="98" text-anchor="middle">resets, free resets</text><text x="564" y="120" text-anchor="middle">pace states</text><text x="564" y="142" text-anchor="middle">can / threshold</text><text x="564" y="164" text-anchor="middle">audit log</text><text x="564" y="192" text-anchor="middle" font-size="12">unix socket, 0600</text>
    <text x="781" y="118" text-anchor="middle">CLI, MCP</text><text x="781" y="140" text-anchor="middle">skill</text>
  </g>
  <g stroke="#8b949e" stroke-width="1.5" fill="none" marker-end="url(#a)"><path d="M196,115 L258,115"/><path d="M410,115 L472,115"/><path d="M654,115 L716,115"/></g>
</svg>
